<svg id="Layer_1" data-name="Layer 1" xmlns="http://www.w3.org/2000/svg" viewBox="0 0 358.28 43.01"><defs><style>.cls-1,.cls-2{fill:#231f20;}.cls-1,.cls-2,.cls-3{stroke:#231f20;stroke-miterlimit:10;}.cls-1{stroke-width:3px;}.cls-2,.cls-3{stroke-width:5px;}.cls-3{fill:none;}</style></defs><path class="cls-1" d="M248.29,296v13.44a3.36,3.36,0,0,0,3.36,3.31h37v6.77h-37a10.11,10.11,0,0,1-10.08-10.08V296a10.08,10.08,0,0,1,10.08-10.08h37v6.72h-37A3.41,3.41,0,0,0,248.29,296Z" transform="translate(-240.07 -278)"/><path class="cls-1" d="M319.55,319.51h-19a7.16,7.16,0,0,1-7.14-7.14v-9.52a7.14,7.14,0,0,1,7.14-7.14h19a7.12,7.12,0,0,1,7.14,7.14v9.52A7.14,7.14,0,0,1,319.55,319.51Zm-19-4.79h19a2.38,2.38,0,0,0,2.42-2.35v-9.52a2.4,2.4,0,0,0-2.42-2.38h-19a2.39,2.39,0,0,0-2.38,2.38v9.52A2.36,2.36,0,0,0,300.55,314.72Z" transform="translate(-240.07 -278)"/><path class="cls-1" d="M335.85,319.51h-4.76V299.62a3.92,3.92,0,0,1,7.31-2l10.54,16.9,10.58-16.93a3.91,3.91,0,0,1,7.27,2v19.89H362V302.58l-9.35,15a4,4,0,0,1-3.4,1.94h-.68a4,4,0,0,1-3.36-1.9l-9.39-15Z" transform="translate(-240.07 -278)"/><path class="cls-1" d="M398.51,302.85v2.38a7.16,7.16,0,0,1-7.14,7.14H370v7.14h-4.76v-23.8h26.18A7.16,7.16,0,0,1,398.51,302.85Zm-4.76,0a2.41,2.41,0,0,0-2.38-2.38H370v7.14h21.42a2.39,2.39,0,0,0,2.38-2.38Z" transform="translate(-240.07 -278)"/><path class="cls-1" d="M407.71,295.71v16.66a2.36,2.36,0,0,0,2.38,2.35h19a2.42,2.42,0,0,0,2.42-2.35V295.71h4.75v16.66a7.16,7.16,0,0,1-7.17,7.14h-19a7.19,7.19,0,0,1-7.18-7.14V295.71Z" transform="translate(-240.07 -278)"/><path class="cls-1" d="M453,319.51v-19H438.67v-4.76H472v4.76H457.71v19Z" transform="translate(-240.07 -278)"/><path class="cls-1" d="M502.6,312l5,7.48h-5.71l-4.76-7.14h-18v7.14h-4.76v-23.8h26.18a7.11,7.11,0,0,1,7.1,7.14v2.38A7,7,0,0,1,502.6,312Zm.35-9.18a2.41,2.41,0,0,0-2.38-2.38H479.15v7.14h21.42a2.39,2.39,0,0,0,2.38-2.38Z" transform="translate(-240.07 -278)"/><path class="cls-1" d="M538.22,319.51h-19a7.16,7.16,0,0,1-7.14-7.14v-9.52a7.14,7.14,0,0,1,7.14-7.14h19a7.13,7.13,0,0,1,7.14,7.14v9.52A7.14,7.14,0,0,1,538.22,319.51Zm-19-4.79h19a2.37,2.37,0,0,0,2.41-2.35v-9.52a2.39,2.39,0,0,0-2.41-2.38h-19a2.39,2.39,0,0,0-2.38,2.38v9.52A2.37,2.37,0,0,0,519.21,314.72Z" transform="translate(-240.07 -278)"/><path class="cls-1" d="M590.08,285.91h6.77v27.75a6,6,0,0,1-5.9,5.85,5.81,5.81,0,0,1-3.56-1.25l-30.91-24.67v25.92h-6.72V291.77a5.86,5.86,0,0,1,5.9-5.86,5.62,5.62,0,0,1,3.56,1.25l30.86,24.67Z" transform="translate(-240.07 -278)"/><polygon class="cls-1" points="60.48 41.51 48.54 41.51 48.54 34.74 55.2 34.74 60.48 41.51"/><rect class="cls-1" x="79.48" y="36.72" width="11.54" height="4.79"/><rect class="cls-1" x="151.3" y="17.71" width="11.54" height="4.76"/><rect class="cls-1" x="260.5" y="17.71" width="16.27" height="4.76"/><rect class="cls-1" x="298.15" y="36.72" width="11.54" height="4.79"/><g id="Line"><line class="cls-2" x1="49.54" y1="8.91" x2="297.93" y2="8.91"/><circle class="cls-3" cx="303.43" cy="8.5" r="6"/></g></svg>